<?xml version="1.0" encoding="utf-8"?>
<!-- Generator: Adobe Illustrator 24.0.3, SVG Export Plug-In . SVG Version: 6.00 Build 0)  -->
<svg version="1.1" id="Layer_1" xmlns="http://www.w3.org/2000/svg" xmlns:xlink="http://www.w3.org/1999/xlink" x="0px" y="0px"
	 viewBox="0 0 524.34 205.78" style="enable-background:new 0 0 524.34 205.78;" xml:space="preserve">
<style type="text/css">
	.st0{fill:#FFFFFF;}
</style>
<g>
	<g>
		<g>
			<path class="st0" d="M93.73,43.22l15.28,56.72L73.05,52.27l-1.89,0.51L88.18,116l-3.16,0.85l-17.9-66.46l7.12-1.92l27.07,35.85
				L90.48,44.09L93.73,43.22z M111.03,106.36l1.8-0.49L95.8,42.66l3.25-0.87l17.9,66.46l-7.21,1.94L82.67,74.34l10.83,40.22
				l-3.16,0.85L75.07,58.69L111.03,106.36z"/>
			<path class="st0" d="M160.07,80.49c0.99,6.08,0.45,10.9-1.61,14.55c-0.82,1.36-1.88,2.96-3.75,4.3
				c-1.85,1.44-4.31,2.59-7.63,3.13c-6.64,1.08-10.8-1.27-13.14-3.45c-3.1-2.81-5.14-7.21-6.13-13.29l-4.76-29.31
				c-0.97-5.99-0.43-10.81,1.61-14.55c1.53-2.8,4.75-6.26,11.39-7.34s10.79,1.18,13.13,3.36c3.12,2.9,5.16,7.3,6.13,13.29
				L160.07,80.49z M152.08,51.7c-1.69-10.42-7.03-15.32-15.51-13.94c-8.48,1.38-11.99,7.72-10.3,18.13l4.76,29.31
				c1.69,10.42,7.14,15.4,15.52,14.04c8.39-1.36,11.98-7.81,10.29-18.23L152.08,51.7z M154.63,81.38c1.51,9.31-1.33,14.5-8.43,15.66
				c-7.1,1.15-11.44-2.87-12.95-12.18l-4.76-29.31c-0.78-4.79-0.42-8.45,1.06-10.96c1.3-2.48,3.79-4.02,7.39-4.61
				c3.59-0.58,6.45,0.09,8.47,2.03c2.2,1.91,3.69,5.27,4.47,10.06L154.63,81.38z M146.65,52.59c-0.85-5.25-2.5-7.82-4.28-8.86
				c-1.78-1.04-3.71-0.72-4.91-0.53c-1.38,0.22-3.13,0.51-4.49,2.05c-1.36,1.55-2.11,4.51-1.25,9.76l4.76,29.31
				c0.88,5.44,2.5,7.82,4.28,8.86c1.78,1.04,3.54,0.84,4.93,0.62c1.2-0.19,3.12-0.6,4.48-2.15c1.36-1.54,2.14-4.32,1.25-9.76
				L146.65,52.59z"/>
			<path class="st0" d="M205.27,50.84l-3.35,0.29l-0.38-4.37c-0.96-10.88-5.8-15.9-14.45-15.14c-8.47,0.74-12.51,8.04-11.69,17.43
				c0.47,5.3,2.83,8.75,5.65,10.94c2.72,2.2,5.82,3.24,7.65,3.83l1.65,0.61c1.64,0.51,4.33,1.21,6.74,3.06
				c2.41,1.85,4.55,4.85,4.95,9.41c0.75,8.56-2.91,13.85-9.7,14.44c-7.35,0.65-11.26-3.32-12.11-13l-0.38-4.37l3.26-0.29l0.38,4.37
				c0.35,4,1.35,6.82,2.9,8.46c0.32,0.44,0.91,0.76,1.79,1.16s2.11,0.56,3.88,0.41c3.35-0.29,5.06-2.13,6-4.28
				c0.84-2.14,0.8-4.76,0.64-6.62c-0.29-3.26-1.59-5.3-3.31-6.74c-1.71-1.35-3.94-2.19-5.97-2.85l-1.74-0.6
				c-2.03-0.67-5.5-1.77-8.73-4.39c-4.04-3.3-6.3-7.7-6.79-13.28c-0.51-5.86,0.63-10.93,3.31-14.63c2.59-3.6,6.5-6.01,11.34-6.43
				c6.7-0.59,10.67,1.97,12.85,4.31c3,3.21,4.72,7.84,5.25,13.88L205.27,50.84z M174.34,74.46l3.26-0.29l0.38,4.37
				c0.94,10.7,5.89,15.8,14.54,15.04c4.09-0.36,7.4-2.24,9.36-5.51c1.9-2.89,2.68-6.89,2.29-11.36c-0.47-5.3-2.92-8.74-5.64-10.85
				c-2.81-2.1-5.89-3.05-7.53-3.56l-1.55-0.52c-1.83-0.59-4.54-1.48-6.96-3.51c-2.42-1.94-4.46-4.86-4.86-9.42
				c-0.29-3.26,0.05-6.85,1.59-9.7s4.06-5.04,8.06-5.39c7.16-0.63,11.28,3.51,12.13,13.19l0.38,4.37l-3.35,0.29l-0.38-4.37
				c-0.46-5.3-1.93-8.08-3.62-9.24c-1.7-1.16-3.65-0.99-4.86-0.89c-3.63,0.32-5.22,2.43-6.04,4.94c-0.9,2.52-0.75,5.32-0.65,6.53
				c0.29,3.26,1.59,5.3,3.32,6.83c1.73,1.54,3.97,2.56,6.28,3.2l1.55,0.52c1.83,0.59,5.29,1.5,8.52,4.13
				c4.12,3.2,6.48,7.59,6.97,13.17c0.92,10.51-4.2,19.49-14.71,20.42c-10.88,0.96-17-5.73-18.08-18.01L174.34,74.46z"/>
			<path class="st0" d="M253.87,73.9c0.17,6.16-1.01,10.86-3.54,14.2c-0.99,1.24-2.26,2.68-4.29,3.76
				c-2.02,1.18-4.62,1.99-7.98,2.09c-6.72,0.18-10.54-2.7-12.57-5.17c-2.7-3.2-4.14-7.83-4.31-13.99l-0.81-29.69
				c-0.17-6.07,1.01-10.77,3.54-14.2c1.89-2.57,5.55-5.57,12.27-5.75c6.72-0.18,10.53,2.61,12.56,5.08
				c2.71,3.29,4.14,7.92,4.31,13.99L253.87,73.9z M249.79,44.3c-0.29-10.55-4.92-16.12-13.51-15.89s-12.91,6.05-12.63,16.6
				l0.81,29.69c0.29,10.55,5.02,16.21,13.51,15.98s12.91-6.14,12.62-16.69L249.79,44.3z M248.36,74.05
				c0.26,9.43-3.26,14.2-10.44,14.39c-7.19,0.2-10.96-4.37-11.21-13.8l-0.81-29.69c-0.13-4.85,0.7-8.43,2.51-10.72
				c1.62-2.29,4.3-3.48,7.94-3.58c3.64-0.1,6.38,0.95,8.12,3.14c1.93,2.19,2.96,5.71,3.09,10.57L248.36,74.05z M244.28,44.45
				c-0.15-5.32-1.44-8.09-3.06-9.35c-1.62-1.26-3.58-1.21-4.8-1.17c-1.4,0.04-3.17,0.09-4.73,1.44c-1.55,1.35-2.69,4.18-2.54,9.5
				l0.81,29.69c0.15,5.51,1.43,8.09,3.06,9.35c1.62,1.26,3.4,1.31,4.8,1.27c1.21-0.03,3.17-0.18,4.72-1.53
				c1.55-1.35,2.69-4,2.54-9.51L244.28,44.45z"/>
			<path class="st0" d="M268.96,30.18l18.39,0.57l-1.97,63.28l-3.36-0.1L283.89,34l-15.03-0.47L268.96,30.18z M307.95,29.24
				l-38.92-1.21l0.11-3.36l38.92,1.21L307.95,29.24z M287.53,94.1l1.97-63.28l18.39,0.57l-0.1,3.36l-15.03-0.47l-1.86,59.92
				L287.53,94.1z"/>
			<path class="st0" d="M325.38,32.36l3.25,0.32l-6.15,63.01l-3.25-0.32L325.38,32.36z M345.54,97.94l-3.35-0.33l1.98-20.26
				c0.59-6.04-2-9.3-7.86-9.87l-5.48-0.53l-2.86,29.28l-3.25-0.32l3.18-32.62l8.74,0.85c7.71,0.75,11.65,5.64,10.88,13.54
				L345.54,97.94z M351.02,98.48l-3.35-0.33l1.98-20.26c0.44-4.55-0.5-8.31-2.94-11.26c-1.02-1.13-2.23-2.09-3.66-2.89
				c5.39-1.44,8.5-6.3,9.3-14.57c1.08-11.06-2.79-16.6-12.55-17.55l-14.22-1.39l0.33-3.35l14.22,1.39
				c11.8,1.15,16.72,8.48,15.48,21.21c-0.62,6.32-2.48,11.02-5.5,14.01c-0.1,0.08-0.3,0.25-0.42,0.43c-0.21,0.17-0.41,0.34-0.6,0.41
				c3.03,3.58,4.45,8.22,3.9,13.89L351.02,98.48z M328.12,61.06l2.75-28.16l8.74,0.85c8.46,0.82,11.5,5.25,10.53,15.19
				c-0.98,10.04-4.82,13.79-13.27,12.97L328.12,61.06z M333.79,36.56l-2.1,21.56l5.48,0.53c2.32,0.23,4.02,0.11,5.01-0.36
				c0.89-0.48,1.49-0.89,1.8-1.14c1.57-1.63,2.5-4.45,2.9-8.54c0.45-4.55-0.04-7.32-1.28-9.04c-1.34-1.63-3.44-2.21-6.32-2.49
				L333.79,36.56z"/>
			<path class="st0" d="M401.64,86.39c-1.07,6.07-3.17,10.44-6.32,13.2c-1.22,1.02-2.75,2.17-4.96,2.82
				c-2.22,0.75-4.92,1.03-8.23,0.44c-6.62-1.17-9.78-4.76-11.27-7.59c-2.01-3.67-2.48-8.5-1.41-14.57l5.17-29.24
				c1.06-5.98,3.16-10.35,6.32-13.2c2.37-2.14,6.55-4.34,13.17-3.17c6.62,1.17,9.8,4.67,11.29,7.5c1.99,3.77,2.46,8.59,1.41,14.57
				L401.64,86.39z M403.6,56.58c1.84-10.39-1.58-16.78-10.04-18.28c-8.46-1.5-13.87,3.33-15.71,13.72l-5.17,29.24
				c-1.84,10.39,1.66,16.89,10.03,18.37s13.88-3.42,15.72-13.82L403.6,56.58z M396.22,85.43c-1.64,9.29-6.04,13.25-13.12,12
				c-7.08-1.25-9.86-6.49-8.21-15.77l5.17-29.25c0.85-4.78,2.38-8.11,4.61-10c2.04-1.91,4.91-2.55,8.49-1.91s6.06,2.21,7.32,4.71
				c1.45,2.53,1.75,6.19,0.91,10.97L396.22,85.43z M398.17,55.62c0.93-5.24,0.22-8.21-1.12-9.78c-1.34-1.56-3.27-1.9-4.46-2.11
				c-1.38-0.24-3.13-0.55-4.92,0.46c-1.79,1.01-3.47,3.55-4.4,8.8l-5.17,29.24c-0.96,5.43-0.22,8.21,1.12,9.78s3.07,1.97,4.45,2.21
				c1.2,0.21,3.14,0.46,4.94-0.55c1.79-1.01,3.44-3.38,4.4-8.8L398.17,55.62z"/>
			<path class="st0" d="M417.37,85.4l3.14,0.9l-1.21,4.22c-2.97,10.32-0.18,16.86,8.17,19.25c3.95,1.14,7.71,0.56,10.71-1.78
				c2.81-2.01,4.97-5.47,6.21-9.78c1.47-5.12,0.41-9.21-1.37-12.15c-1.87-2.97-4.4-4.96-5.75-6.03l-1.26-1.04
				c-1.5-1.21-3.7-3.01-5.24-5.78c-1.56-2.68-2.41-6.14-1.15-10.53c0.9-3.14,2.51-6.37,4.96-8.48c2.45-2.11,5.6-3.25,9.46-2.14
				c6.91,1.99,9.26,7.33,6.58,16.66l-1.21,4.22l-3.23-0.93l1.21-4.22c1.47-5.12,1.1-8.23-0.06-9.93c-1.17-1.69-3.05-2.24-4.22-2.57
				c-3.5-1.01-5.75,0.39-7.41,2.44c-1.75,2.02-2.61,4.69-2.95,5.86c-0.9,3.14-0.42,5.52,0.64,7.57c1.06,2.05,2.79,3.81,4.71,5.24
				l1.26,1.04c1.5,1.21,4.39,3.3,6.47,6.91c2.7,4.47,3.32,9.41,1.77,14.79c-2.92,10.14-10.92,16.68-21.06,13.77
				c-10.5-3.02-13.81-11.45-10.4-23.3L417.37,85.4z M454.71,74.47l-3.23-0.93l1.21-4.22c3.02-10.5,0.3-16.92-8.05-19.32
				c-8.17-2.35-14.56,3-17.17,12.07c-1.47,5.12-0.5,9.18,1.34,12.24c1.75,3.03,4.26,5.11,5.76,6.32l1.32,1.16
				c1.34,1.07,3.6,2.69,5.19,5.28s2.5,6.16,1.24,10.56c-2.37,8.26-7.69,11.88-14.24,10c-7.09-2.04-9.31-7.15-6.63-16.48l1.21-4.22
				l3.14,0.9l-1.21,4.22c-1.11,3.86-1.19,6.85-0.33,8.94c0.14,0.53,0.57,1.04,1.25,1.72c0.68,0.68,1.77,1.29,3.47,1.78
				c3.23,0.93,5.49-0.17,7.14-1.84c1.55-1.69,2.46-4.15,2.97-5.95c0.9-3.14,0.42-5.52-0.67-7.48c-1.11-1.88-2.89-3.46-4.55-4.81
				l-1.41-1.18c-1.65-1.35-4.5-3.62-6.57-7.23c-2.58-4.53-3.12-9.45-1.57-14.83c1.62-5.65,4.52-9.97,8.35-12.47
				c3.71-2.43,8.23-3.27,12.89-1.93c6.46,1.86,9.25,5.67,10.44,8.64c1.65,4.07,1.59,9.01-0.09,14.84L454.71,74.47z"/>
		</g>
		<rect x="219.93" y="1.04" class="st0" width="81.8" height="3.25"/>
		<rect x="219.93" y="117.66" class="st0" width="81.8" height="3.25"/>
	</g>
</g>
</svg>
